<svg width="64" height="65" viewBox="0 0 64 65" fill="none" xmlns="http://www.w3.org/2000/svg">
<g clip-path="url(#clip0_48_41)">
<path d="M31.7 64.2C49.2074 64.2 63.4 50.0074 63.4 32.5C63.4 14.9926 49.2074 0.799999 31.7 0.799999C14.1926 0.799999 0 14.9926 0 32.5C0 50.0074 14.1926 64.2 31.7 64.2Z" fill="#F5B300"/>
<path d="M23.1 16.3C24.2 16.6 25.3 16.8 26.4 17.1C27.5 17.4 28.6 17.6 29.7 17.9C30 18 30.1 17.9 30.2 17.6C30.6 15.9 31 14.3 31.4 12.6C31.5 12.3 31.6 12.2 31.9 12.3C32.9 12.6 33.8 12.8 34.8 13C35.1 13.1 35.1 13.2 35 13.4C34.6 15 34.2 16.7 33.8 18.3C33.8 18.4 33.8 18.5 33.7 18.7C34.5 18.9 35.4 19.1 36.2 19.3C36.3 19.3 36.4 19.1 36.5 19C36.8 17.7 37.1 16.5 37.5 15.2L37.8 14C37.8 13.8 37.9 13.7 38.1 13.8C39.1 14.1 40.1 14.3 41.2 14.6C41.3 14.6 41.3 14.7 41.4 14.7C41.1 16 40.8 17.2 40.5 18.4C40.4 18.9 40.3 19.4 40.1 19.9C40 20.2 40.1 20.3 40.4 20.4L43.7 21.9C44.7 22.5 45.6 23.3 46.3 24.3C47.2 25.8 47.3 27.4 46.9 29C46.6 30.1 46.2 31.1 45.4 31.9C44.8 32.5 44 32.9 43.2 33.2C43.1 33.2 43 33.3 42.8 33.3C43.2 33.6 43.6 33.8 44 34.1C45.2 35 46 36.1 46.4 37.5C46.6 38.6 46.5 39.8 46.2 40.9C45.8 42.3 45.3 43.5 44.4 44.6C43.3 45.9 41.9 46.6 40.3 46.8C38.2 47.1 36.2 46.9 34.2 46.6C33.9 46.5 33.7 46.6 33.6 46.9C33.2 48.5 32.8 50.2 32.4 51.8C32.3 52.2 32.3 52.3 31.8 52.1C30.9 51.9 29.9 51.6 29 51.4C28.7 51.3 28.7 51.2 28.8 51C29.2 49.3 29.6 47.6 30.1 46C30.1 45.8 30.2 45.7 30 45.6C29.2 45.4 28.4 45.2 27.5 45C27.3 45.9 27 46.8 26.8 47.7C26.6 48.6 26.3 49.5 26.1 50.4C26 50.6 26 50.7 25.7 50.6C24.7 50.3 23.7 50.1 22.7 49.9C22.4 49.8 22.4 49.7 22.5 49.5C22.9 47.8 23.3 46.1 23.8 44.5C23.8 44.4 23.9 44.3 23.9 44.1C21.6 43.5 19.3 42.9 16.9 42.3C17.1 41.9 17.2 41.6 17.4 41.2C17.8 40.3 18.2 39.4 18.5 38.6C18.6 38.3 18.7 38.3 19 38.3C19.7 38.5 20.5 38.7 21.2 38.8C22 39 22.6 38.6 22.7 37.9C24 32.8 25.3 27.7 26.5 22.5C26.7 21.7 26.2 20.8 25.3 20.5C24.4 20.2 23.5 20 22.7 19.8C22.5 19.8 22.4 19.7 22.5 19.5C22.8 18.4 23.1 17.2 23.4 16.1C23 16.4 23 16.4 23.1 16.3ZM28.2 41C28.3 41 28.4 41.1 28.4 41.1C30 41.5 31.7 42 33.4 42.1C34.6 42.2 35.7 42.2 36.8 41.8C38.7 41.2 39.5 38.7 38.4 37.1C37.9 36.3 37.1 35.8 36.3 35.3C34.5 34.3 32.4 33.9 30.4 33.5C30.1 33.4 30.1 33.5 30 33.8C29.8 34.8 29.5 35.7 29.3 36.7C28.9 38.1 28.6 39.5 28.2 41ZM36.6 30.8C36.8 30.8 37.3 30.7 37.7 30.6C39.6 30.2 40.6 28 39.6 26.3C39.1 25.4 38.2 24.8 37.3 24.4C35.9 23.8 34.5 23.5 33 23.1C32.7 23 32.6 23.1 32.5 23.4C32 25.5 31.5 27.5 30.9 29.6C30.8 29.8 30.9 29.9 31.1 30C31.5 30.1 31.8 30.2 32.2 30.3C33.7 30.5 35 30.8 36.6 30.8Z" fill="white"/>
</g>
<defs>
<clipPath id="clip0_48_41">
<rect width="64" height="65" fill="white"/>
</clipPath>
</defs>
</svg>
