<svg width="128" height="128" viewBox="0 0 128 128" fill="none" xmlns="http://www.w3.org/2000/svg">
<path d="M45.9 71.66C50.2189 71.66 53.72 68.1589 53.72 63.84C53.72 59.5211 50.2189 56.02 45.9 56.02C41.5812 56.02 38.08 59.5211 38.08 63.84C38.08 68.1589 41.5812 71.66 45.9 71.66Z" fill="black"/>
<path d="M82.1 71.66C86.4189 71.66 89.92 68.1589 89.92 63.84C89.92 59.5211 86.4189 56.02 82.1 56.02C77.7811 56.02 74.28 59.5211 74.28 63.84C74.28 68.1589 77.7811 71.66 82.1 71.66Z" fill="black"/>
<path d="M54.95 87.33C59.2689 87.33 62.77 83.8289 62.77 79.51C62.77 75.1911 59.2689 71.69 54.95 71.69C50.6311 71.69 47.13 75.1911 47.13 79.51C47.13 83.8289 50.6311 87.33 54.95 87.33Z" fill="black"/>
<path d="M73.05 55.99C77.3689 55.99 80.87 52.4889 80.87 48.17C80.87 43.8511 77.3689 40.35 73.05 40.35C68.7311 40.35 65.23 43.8511 65.23 48.17C65.23 52.4889 68.7311 55.99 73.05 55.99Z" fill="black"/>
<path d="M73.05 87.33C77.3689 87.33 80.87 83.8289 80.87 79.51C80.87 75.1911 77.3689 71.69 73.05 71.69C68.7311 71.69 65.23 75.1911 65.23 79.51C65.23 83.8289 68.7311 87.33 73.05 87.33Z" fill="black"/>
<path d="M54.95 55.99C59.2689 55.99 62.77 52.4889 62.77 48.17C62.77 43.8511 59.2689 40.35 54.95 40.35C50.6311 40.35 47.13 43.8511 47.13 48.17C47.13 52.4889 50.6311 55.99 54.95 55.99Z" fill="black"/>
<path d="M103.98 68.1C106.244 68.1 108.08 66.2644 108.08 64C108.08 61.7356 106.244 59.9 103.98 59.9C101.716 59.9 99.88 61.7356 99.88 64C99.88 66.2644 101.716 68.1 103.98 68.1Z" fill="black"/>
<path d="M24.02 68.1C26.2844 68.1 28.12 66.2644 28.12 64C28.12 61.7356 26.2844 59.9 24.02 59.9C21.7556 59.9 19.92 61.7356 19.92 64C19.92 66.2644 21.7556 68.1 24.02 68.1Z" fill="black"/>
<path d="M9.48 66.6C10.9159 66.6 12.08 65.4359 12.08 64C12.08 62.5641 10.9159 61.4 9.48 61.4C8.04406 61.4 6.88 62.5641 6.88 64C6.88 65.4359 8.04406 66.6 9.48 66.6Z" fill="black"/>
<path d="M118.52 66.6C119.956 66.6 121.12 65.4359 121.12 64C121.12 62.5641 119.956 61.4 118.52 61.4C117.084 61.4 115.92 62.5641 115.92 64C115.92 65.4359 117.084 66.6 118.52 66.6Z" fill="black"/>
<path d="M83.99 33.47C86.2544 33.47 88.09 31.6344 88.09 29.37C88.09 27.1056 86.2544 25.27 83.99 25.27C81.7256 25.27 79.89 27.1056 79.89 29.37C79.89 31.6344 81.7256 33.47 83.99 33.47Z" fill="black"/>
<path d="M44.01 102.73C46.2744 102.73 48.11 100.894 48.11 98.63C48.11 96.3656 46.2744 94.53 44.01 94.53C41.7456 94.53 39.91 96.3656 39.91 98.63C39.91 100.894 41.7456 102.73 44.01 102.73Z" fill="black"/>
<path d="M36.74 113.81C38.176 113.81 39.34 112.646 39.34 111.21C39.34 109.774 38.176 108.61 36.74 108.61C35.3041 108.61 34.14 109.774 34.14 111.21C34.14 112.646 35.3041 113.81 36.74 113.81Z" fill="black"/>
<path d="M91.26 19.39C92.696 19.39 93.86 18.2259 93.86 16.79C93.86 15.3541 92.696 14.19 91.26 14.19C89.8241 14.19 88.66 15.3541 88.66 16.79C88.66 18.2259 89.8241 19.39 91.26 19.39Z" fill="black"/>
<path d="M44.01 33.47C46.2744 33.47 48.11 31.6344 48.11 29.37C48.11 27.1056 46.2744 25.27 44.01 25.27C41.7456 25.27 39.91 27.1056 39.91 29.37C39.91 31.6344 41.7456 33.47 44.01 33.47Z" fill="black"/>
<path d="M83.99 102.73C86.2544 102.73 88.09 100.894 88.09 98.63C88.09 96.3656 86.2544 94.53 83.99 94.53C81.7256 94.53 79.89 96.3656 79.89 98.63C79.89 100.894 81.7256 102.73 83.99 102.73Z" fill="black"/>
<path d="M91.26 113.81C92.696 113.81 93.86 112.646 93.86 111.21C93.86 109.774 92.696 108.61 91.26 108.61C89.8241 108.61 88.66 109.774 88.66 111.21C88.66 112.646 89.8241 113.81 91.26 113.81Z" fill="black"/>
<path d="M36.74 19.39C38.176 19.39 39.34 18.2259 39.34 16.79C39.34 15.3541 38.176 14.19 36.74 14.19C35.3041 14.19 34.14 15.3541 34.14 16.79C34.14 18.2259 35.3041 19.39 36.74 19.39Z" fill="black"/>
<path d="M64 37.43C66.6068 37.43 68.72 35.3168 68.72 32.71C68.72 30.1032 66.6068 27.99 64 27.99C61.3932 27.99 59.28 30.1032 59.28 32.71C59.28 35.3168 61.3932 37.43 64 37.43Z" fill="black"/>
<path d="M64 17.28C65.7839 17.28 67.23 15.8339 67.23 14.05C67.23 12.2661 65.7839 10.82 64 10.82C62.2161 10.82 60.77 12.2661 60.77 14.05C60.77 15.8339 62.2161 17.28 64 17.28Z" fill="black"/>
<path d="M64 100.01C66.6068 100.01 68.72 97.8968 68.72 95.29C68.72 92.6832 66.6068 90.57 64 90.57C61.3932 90.57 59.28 92.6832 59.28 95.29C59.28 97.8968 61.3932 100.01 64 100.01Z" fill="black"/>
<path d="M64 117.18C65.7839 117.18 67.23 115.734 67.23 113.95C67.23 112.166 65.7839 110.72 64 110.72C62.2161 110.72 60.77 112.166 60.77 113.95C60.77 115.734 62.2161 117.18 64 117.18Z" fill="black"/>
<path d="M36.9 53.08C39.5068 53.08 41.62 50.9668 41.62 48.36C41.62 45.7532 39.5068 43.64 36.9 43.64C34.2932 43.64 32.18 45.7532 32.18 48.36C32.18 50.9668 34.2932 53.08 36.9 53.08Z" fill="black"/>
<path d="M20.74 42.25C22.5239 42.25 23.97 40.8039 23.97 39.02C23.97 37.2361 22.5239 35.79 20.74 35.79C18.9561 35.79 17.51 37.2361 17.51 39.02C17.51 40.8039 18.9561 42.25 20.74 42.25Z" fill="black"/>
<path d="M91.1 84.36C93.7068 84.36 95.82 82.2468 95.82 79.64C95.82 77.0332 93.7068 74.92 91.1 74.92C88.4932 74.92 86.38 77.0332 86.38 79.64C86.38 82.2468 88.4932 84.36 91.1 84.36Z" fill="black"/>
<path d="M107.26 92.21C109.044 92.21 110.49 90.7639 110.49 88.98C110.49 87.1961 109.044 85.75 107.26 85.75C105.476 85.75 104.03 87.1961 104.03 88.98C104.03 90.7639 105.476 92.21 107.26 92.21Z" fill="black"/>
<path d="M36.9 84.36C39.5068 84.36 41.62 82.2468 41.62 79.64C41.62 77.0332 39.5068 74.92 36.9 74.92C34.2932 74.92 32.18 77.0332 32.18 79.64C32.18 82.2468 34.2932 84.36 36.9 84.36Z" fill="black"/>
<path d="M20.74 92.21C22.5239 92.21 23.97 90.7639 23.97 88.98C23.97 87.1961 22.5239 85.75 20.74 85.75C18.9561 85.75 17.51 87.1961 17.51 88.98C17.51 90.7639 18.9561 92.21 20.74 92.21Z" fill="black"/>
<path d="M91.1 53.08C93.7068 53.08 95.82 50.9668 95.82 48.36C95.82 45.7532 93.7068 43.64 91.1 43.64C88.4932 43.64 86.38 45.7532 86.38 48.36C86.38 50.9668 88.4932 53.08 91.1 53.08Z" fill="black"/>
<path d="M107.26 42.25C109.044 42.25 110.49 40.8039 110.49 39.02C110.49 37.2361 109.044 35.79 107.26 35.79C105.476 35.79 104.03 37.2361 104.03 39.02C104.03 40.8039 105.476 42.25 107.26 42.25Z" fill="black"/>
</svg>
