<svg width="40" height="65" viewBox="0 0 40 65" fill="none" xmlns="http://www.w3.org/2000/svg">
<g clip-path="url(#clip0_48_45)">
<path d="M20.1 0.800003V24.1C20.1 24.2 20 24.3 19.9 24.3C19.2 24.6 18.6 24.9 17.9 25.2C17 25.6 16 26 15.1 26.5L11.8 28L9.1 29.2L5.8 30.7C4.9 31.1 4 31.5 3 32C2.3 32.3 1.5 32.7 0.8 33C0.7 33 0.7 33.1 0.6 33H0.5C0.8 32.5 1.1 32.1 1.4 31.6C3 28.9 4.7 26.2 6.3 23.5C8 20.6 9.8 17.7 11.5 14.8C13.1 12.1 14.7 9.4 16.3 6.8C17.5 4.8 18.7 2.9 19.8 0.900003C20 0.900003 20 0.800003 20.1 0.800003Z" fill="#8A92B2"/>
<path d="M39.5 33C38 34 36.4 34.9 34.9 35.8C30 38.7 25.2 41.5 20.3 44.4C20.2 44.4 20.2 44.5 20.1 44.5C20 44.5 20 44.4 20 44.4V44.1V24.6V24.3C20 24.2 20.1 24.2 20.2 24.2C20.6 24.4 21 24.6 21.5 24.8C22.7 25.4 24 25.9 25.2 26.5C26.3 27 27.3 27.5 28.4 27.9C29.5 28.4 30.5 28.9 31.6 29.4C32.5 29.8 33.5 30.2 34.4 30.7C35.3 31.1 36.3 31.5 37.2 32C37.9 32.3 38.6 32.7 39.4 33C39.4 32.9 39.4 33 39.5 33Z" fill="#454A75"/>
<path d="M20.1 64.1C20 64.1 20 64.1 19.9 64C17.9 61.2 16 58.5 14 55.7L7.99998 47.3C6.09998 44.6 4.09998 41.9 2.19998 39.1L0.699976 37C0.699976 36.9 0.599976 36.9 0.599976 36.8C0.699976 36.8 0.699976 36.9 0.799976 36.9C3.49998 38.5 6.29998 40.1 8.99998 41.7C12.1 43.6 15.3 45.4 18.4 47.3C18.9 47.6 19.5 47.9 20 48.2C20.1 48.2 20.1 48.3 20.1 48.4V64.1Z" fill="#8A92B2"/>
<path d="M0.599976 33C0.699976 33 0.699976 33 0.599976 33C0.599976 33.1 0.599976 33.1 0.599976 33Z" fill="#808080"/>
<path d="M0.700012 33.1C0.700012 33 0.700012 33 0.700012 33.1C1.70001 32.6 2.70001 32.2 3.70001 31.7L7.60001 29.9C8.60001 29.4 9.60001 29 10.6 28.5C12 27.8 13.5 27.2 14.9 26.5C15.9 26.1 16.9 25.6 17.9 25.2C18.6 24.9 19.3 24.6 20 24.2C20.1 24.2 20.1 24.1 20.2 24.1V44.5C20.1 44.6 20.1 44.5 20 44.5C19.7 44.3 19.4 44.2 19.2 44L0.900012 33.2C0.800012 33.1 0.700012 33.1 0.700012 33.1Z" fill="#62688F"/>
<path d="M39.4 36.8C39.4 36.9 39.4 36.9 39.3 37C33.5 45.2 27.7 53.3 21.9 61.5C21.3 62.4 20.7 63.2 20.1 64.1V64V63.8V48.5V48.2C21.4 47.4 22.7 46.6 24 45.9L39.3 36.9C39.3 36.8 39.4 36.8 39.4 36.8Z" fill="#62688F"/>
<path d="M20.1 24.2V24V1.1V0.900002L39.3 32.7C39.4 32.8 39.5 32.9 39.5 33C39.1 32.8 38.7 32.6 38.2 32.4C37.7 32.2 37.2 31.9 36.7 31.7C36.4 31.6 36.1 31.4 35.7 31.3C35.2 31.1 34.6 30.8 34.1 30.6C33.8 30.5 33.5 30.3 33.2 30.2L31.1 29.3C30.7 29.1 30.4 29 30 28.8C29.5 28.6 29 28.3 28.5 28.1C28.2 28 27.9 27.8 27.6 27.7L25.5 26.8C25.1 26.6 24.8 26.5 24.4 26.3C23.9 26.1 23.4 25.8 22.9 25.6C22.6 25.4 22.2 25.3 21.9 25.1L20.1 24.2Z" fill="#62688F"/>
</g>
<defs>
<clipPath id="clip0_48_45">
<rect width="40" height="65" fill="white"/>
</clipPath>
</defs>
</svg>
