<svg width="38" height="48" viewBox="0 0 38 48" fill="none" xmlns="http://www.w3.org/2000/svg">
<path opacity="0.15" d="M19 47.2C25.8483 47.2 31.4 46.4389 31.4 45.5C31.4 44.5611 25.8483 43.8 19 43.8C12.1516 43.8 6.59998 44.5611 6.59998 45.5C6.59998 46.4389 12.1516 47.2 19 47.2Z" fill="#45413C"/>
<path d="M19 34.2C28.0574 34.2 35.4 26.8575 35.4 17.8C35.4 8.74256 28.0574 1.40002 19 1.40002C9.9425 1.40002 2.59998 8.74256 2.59998 17.8C2.59998 26.8575 9.9425 34.2 19 34.2Z" fill="#FFE500"/>
<path d="M19 1.40002C9.99998 1.40002 2.59998 8.70003 2.59998 17.8C2.59998 26.9 9.99998 34.2 19 34.2C28 34.2 35.4 26.9 35.4 17.8C35.4 8.70003 28 1.40002 19 1.40002ZM19 31.7C10.8 31.7 4.09998 25 4.09998 16.8C4.09998 8.50002 10.8 1.80002 19 1.80002C27.2 1.80002 33.9 8.50002 33.9 16.7C33.9 25 27.2 31.7 19 31.7Z" fill="#EBCB00"/>
<path d="M19 5.9C21.7062 5.9 23.9 5.36274 23.9 4.7C23.9 4.03726 21.7062 3.5 19 3.5C16.2938 3.5 14.1 4.03726 14.1 4.7C14.1 5.36274 16.2938 5.9 19 5.9Z" fill="#FFF48C"/>
<path d="M19 34.2C28.0574 34.2 35.4 26.8575 35.4 17.8C35.4 8.74256 28.0574 1.40002 19 1.40002C9.9425 1.40002 2.59998 8.74256 2.59998 17.8C2.59998 26.8575 9.9425 34.2 19 34.2Z" stroke="#45413C" stroke-miterlimit="10" stroke-linecap="round" stroke-linejoin="round"/>
<path d="M30 23.1C31.1046 23.1 32 22.5628 32 21.9C32 21.2373 31.1046 20.7 30 20.7C28.8954 20.7 28 21.2373 28 21.9C28 22.5628 28.8954 23.1 30 23.1Z" fill="#FFAA54"/>
<path d="M8 23.1C9.10457 23.1 10 22.5628 10 21.9C10 21.2373 9.10457 20.7 8 20.7C6.89543 20.7 6 21.2373 6 21.9C6 22.5628 6.89543 23.1 8 23.1Z" fill="#FFAA54"/>
<path d="M12.8 22.7C13.2 29.3 17 32 18.4 32.8C18.7 33 19.2 33 19.5 32.8C20.9 32 24.7 29.3 25.1 22.7C25.1 22.1 24.6 21.5 24 21.5H13.9C13.3 21.5 12.8 22.1 12.8 22.7Z" fill="#FFB0CA" stroke="#45413C" stroke-miterlimit="10" stroke-linecap="round" stroke-linejoin="round"/>
<path d="M19 27.2C19 26 22.7 26.3 22.7 27.6V32.9C22.7 34.9 21.1 36.6 19 36.6C16.9 36.6 15.3 35 15.3 32.9V27.6C15.3 26.3 19 26 19 27.2Z" fill="#FF6242"/>
<path d="M19 27.2C19 26 15.3 26.3 15.3 27.6V29.2C15.3 27.9 22.7 27.9 22.7 29.2V27.6C22.7 26.3 19 26 19 27.2Z" fill="#FF866E"/>
<path d="M19 27.2C19 26 22.7 26.3 22.7 27.6V32.9C22.7 34.9 21.1 36.6 19 36.6C16.9 36.6 15.3 35 15.3 32.9V27.6C15.3 26.3 19 26 19 27.2Z" stroke="#45413C" stroke-miterlimit="10" stroke-linecap="round" stroke-linejoin="round"/>
<path d="M23.1 41.3C23.1 43.8 19.8 43.8 19.8 41.3C19.8 39.9 21.4 37.9 21.4 37.9C21.4 37.9 23.1 39.8 23.1 41.3Z" fill="#4AEFF7" stroke="#45413C" stroke-miterlimit="10" stroke-linecap="round" stroke-linejoin="round"/>
<path opacity="0.15" d="M25.2 2.70001C23.5901 3.4082 22.2217 4.57065 21.2625 6.04491C20.3034 7.51917 19.7951 9.2412 19.8 11C19.8 16.1 23.9 20.2 29 20.2C31.5 20.2 33.7 19.2 35.3 17.7C35.3 10.9 31.2 5.10001 25.2 2.70001Z" fill="#45413C"/>
<path d="M28.5 18C33.1944 18 37 14.1944 37 9.5C37 4.80558 33.1944 1 28.5 1C23.8056 1 20 4.80558 20 9.5C20 14.1944 23.8056 18 28.5 18Z" fill="#FFFACF"/>
<path d="M28.5 16.4C24.1 16.4 20.5 13 20.1 8.70001V9.50001C20.1 14.2 23.9 18 28.6 18C33.3 18 37.1 14.2 37.1 9.50001V8.70001C36.6 13 32.9 16.4 28.5 16.4Z" fill="#FFE500"/>
<path d="M28.5 3.7C32.7 3.7 36.2 6.8 36.9 10.9C37 10.4 37 10 37 9.5C37 4.8 33.2 1 28.5 1C23.8 1 20 4.8 20 9.5C20 10 20 10.4 20.1 10.8C20.8 6.8 24.3 3.7 28.5 3.7Z" fill="white"/>
<path d="M28.5 18C33.1944 18 37 14.1944 37 9.5C37 4.80558 33.1944 1 28.5 1C23.8056 1 20 4.80558 20 9.5C20 14.1944 23.8056 18 28.5 18Z" stroke="#45413C" stroke-miterlimit="10" stroke-linejoin="round"/>
<path d="M28.5 4.40002V14.6" stroke="#45413C" stroke-miterlimit="10" stroke-linecap="round" stroke-linejoin="round"/>
<path d="M26.5 11.5C26.5 12.6 27.4 13.5 28.5 13.5C29.6 13.5 30.5 12.6 30.5 11.5C30.5 10.4 29.6 9.5 28.5 9.5C27.4 9.5 26.5 8.6 26.5 7.5C26.5 6.4 27.4 5.5 28.5 5.5C29.6 5.5 30.5 6.4 30.5 7.5" stroke="#45413C" stroke-miterlimit="10" stroke-linecap="round" stroke-linejoin="round"/>
<path opacity="0.15" d="M12.8 2.70001C16 4.10001 18.2 7.40001 18.2 11.1C18.2 16.2 14.1 20.3 9.00001 20.3C6.50001 20.3 4.30001 19.3 2.70001 17.8C2.70001 10.9 6.80001 5.10001 12.8 2.70001Z" fill="#45413C"/>
<path d="M9.5 18C14.1944 18 18 14.1944 18 9.5C18 4.80558 14.1944 1 9.5 1C4.80558 1 1 4.80558 1 9.5C1 14.1944 4.80558 18 9.5 18Z" fill="#FFFACF"/>
<path d="M9.5 16.4C13.9 16.4 17.5 13 17.9 8.70001V9.50001C17.9 14.2 14.1 18 9.4 18C4.8 18 1 14.2 1 9.50001V8.70001C1.4 13 5.1 16.4 9.5 16.4Z" fill="#FFE500"/>
<path d="M9.5 3.7C5.3 3.7 1.8 6.8 1.1 10.9C1 10.4 1 10 1 9.5C1 4.8 4.8 1 9.5 1C14.2 1 18 4.8 18 9.5C18 10 18 10.4 17.9 10.8C17.2 6.8 13.7 3.7 9.5 3.7Z" fill="white"/>
<path d="M9.5 18C14.1944 18 18 14.1944 18 9.5C18 4.80558 14.1944 1 9.5 1C4.80558 1 1 4.80558 1 9.5C1 14.1944 4.80558 18 9.5 18Z" stroke="#45413C" stroke-miterlimit="10" stroke-linejoin="round"/>
<path d="M9.59998 4.40002V14.6" stroke="#45413C" stroke-miterlimit="10" stroke-linecap="round" stroke-linejoin="round"/>
<path d="M7.5 11.5C7.5 12.6 8.4 13.5 9.5 13.5C10.6 13.5 11.5 12.6 11.5 11.5C11.5 10.4 10.6 9.5 9.5 9.5C8.4 9.5 7.5 8.6 7.5 7.5C7.5 6.4 8.4 5.5 9.5 5.5C10.6 5.5 11.5 6.4 11.5 7.5" stroke="#45413C" stroke-miterlimit="10" stroke-linecap="round" stroke-linejoin="round"/>
</svg>
